# xmcd CD database file
#
# Track frame offsets:
#	150
#	19010
#	32787
#
# Disc length: 688 seconds
#
# Revision: 0
# Processed by: cddbd v1.5.1PL0 Copyright (c) Steve Scherf et al.
# Submitted via: CDex 1.51
#
DISCID=1a02ae03
DTITLE=麻倉晶 - 炎のラヴチェイス
DYEAR=1993
DGENRE=JPop
TTITLE0=炎のラヴチェイス
TTITLE1=You
TTITLE2=炎のラヴチェイス(カラオケ)
EXTD=YEAR: 1993/10/21
EXTT0=
EXTT1=
EXTT2=
PLAYORDER=
